<?xml version="1.0" encoding="UTF-8" standalone="no"?>
<svg
   xmlns:dc="http://purl.org/dc/elements/1.1/"
   xmlns:cc="http://creativecommons.org/ns#"
   xmlns:rdf="http://www.w3.org/1999/02/22-rdf-syntax-ns#"
   xmlns:svg="http://www.w3.org/2000/svg"
   xmlns="http://www.w3.org/2000/svg"
   xmlns:sodipodi="http://sodipodi.sourceforge.net/DTD/sodipodi-0.dtd"
   xmlns:inkscape="http://www.inkscape.org/namespaces/inkscape"
   viewBox="0 0 512 398.14709"
   version="1.1"
   id="svg4"
   sodipodi:docname="home.svg"
   width="512"
   height="398.14709"
   inkscape:version="0.92.4 (5da689c313, 2019-01-14)">
  <metadata
     id="metadata10">
    <rdf:RDF>
      <cc:Work
         rdf:about="">
        <dc:format>image/svg+xml</dc:format>
        <dc:type
           rdf:resource="http://purl.org/dc/dcmitype/StillImage" />
        <dc:title></dc:title>
      </cc:Work>
    </rdf:RDF>
  </metadata>
  <defs
     id="defs8" />
  <sodipodi:namedview
     pagecolor="#ffffff"
     bordercolor="#666666"
     borderopacity="1"
     objecttolerance="10"
     gridtolerance="10"
     guidetolerance="10"
     inkscape:pageopacity="0"
     inkscape:pageshadow="2"
     inkscape:window-width="1593"
     inkscape:window-height="480"
     id="namedview6"
     showgrid="false"
     inkscape:zoom="0.4609375"
     inkscape:cx="288.01498"
     inkscape:cy="224"
     inkscape:window-x="1614"
     inkscape:window-y="347"
     inkscape:window-maximized="0"
     inkscape:current-layer="svg4" />
  <path
     d="M 249.21188,103.28982 85.340074,238.25719 v 145.66877 a 14.221126,14.221126 0 0 0 14.221127,14.22113 l 99.601209,-0.25776 a 14.221126,14.221126 0 0 0 14.15002,-14.22112 v -85.069 a 14.221126,14.221126 0 0 1 14.22113,-14.22113 h 56.8845 a 14.221126,14.221126 0 0 1 14.22113,14.22113 v 85.00678 a 14.221126,14.221126 0 0 0 14.22112,14.26557 l 99.56566,0.27553 A 14.221126,14.221126 0 0 0 426.6471,383.92596 V 238.15942 L 262.81084,103.28982 a 10.83472,10.83472 0 0 0 -13.59896,0 z m 258.85116,91.73515 -74.30538,-61.24861 V 10.665845 A 10.665845,10.665845 0 0 0 423.09182,0 H 373.31787 A 10.665845,10.665845 0 0 0 362.65203,10.665845 V 75.20309 L 283.07594,9.732583 a 42.663378,42.663378 0 0 0 -54.21804,0 L 3.8707983,195.02497 a 10.665845,10.665845 0 0 0 -1.4221126,15.02106 l 22.6649193,27.55343 a 10.665845,10.665845 0 0 0 15.029953,1.44878 L 249.21188,66.84818 a 10.83472,10.83472 0 0 1 13.59896,0 l 209.07721,172.20006 a 10.665845,10.665845 0 0 0 15.02107,-1.42211 l 22.66492,-27.55343 a 10.665845,10.665845 0 0 0 -1.511,-15.04773 z"
     id="path2"
     inkscape:connector-curvature="0"
     style="stroke-width:0.88882041" />
</svg>
